<svg width="71" height="417" viewBox="0 0 71 417" fill="none" xmlns="http://www.w3.org/2000/svg">
<path d="M30.2283 154.5C23.0283 94.1 64.2283 37 85.7283 16V397.5C12.9283 376.3 3.03751 324.784 22.7282 295.5C53.9955 249 37.4283 214.9 30.2283 154.5Z" fill="#4B465D"/>
<path d="M85.7283 16H86.7283V13.6254L85.0295 15.2846L85.7283 16ZM30.2283 154.5L29.2353 154.618L30.2283 154.5ZM22.7282 295.5L23.5581 296.058L23.5581 296.058L22.7282 295.5ZM85.7283 397.5L85.4487 398.46L86.7283 398.833V397.5H85.7283ZM14.2283 286.5L13.3643 285.996L13.3643 285.996L14.2283 286.5ZM85.0295 15.2846C74.2025 25.8598 58.4592 45.4759 46.3193 70.0318C34.1799 94.5869 25.6047 124.162 29.2353 154.618L31.2212 154.382C27.6518 124.438 36.0766 95.2631 48.1122 70.9182C60.1473 46.5741 75.754 27.1402 86.427 16.7154L85.0295 15.2846ZM29.2353 154.618C31.0388 169.748 33.4293 183.233 35.5045 195.638C37.582 208.057 39.3414 219.384 39.9048 230.264C41.0285 251.964 37.3962 271.894 21.8984 294.942L23.5581 296.058C39.3275 272.606 43.0452 252.236 41.9021 230.161C41.3321 219.153 39.554 207.724 37.4771 195.308C35.3981 182.88 33.0177 169.452 31.2212 154.382L29.2353 154.618ZM21.8984 294.942C11.8573 309.875 9.3772 330.45 18.6409 349.96C27.9069 369.475 48.8556 387.804 85.4487 398.46L86.0079 396.54C49.8009 385.996 29.4043 367.966 20.4476 349.102C11.4886 330.234 13.9085 310.409 23.5581 296.058L21.8984 294.942ZM86.7283 397.5V16H84.7283V397.5H86.7283ZM85.2346 0.130373C67.3752 10.2696 47.7048 34.0937 33.3509 62.6762C18.9873 91.278 9.84089 124.853 13.2347 154.613L15.2218 154.387C11.8873 125.147 20.8768 91.972 35.1382 63.5738C49.4092 35.1563 68.853 11.7304 86.222 1.86963L85.2346 0.130373ZM13.2347 154.613C14.9232 169.42 17.6105 181.938 20.2243 193.154C22.8425 204.39 25.3712 214.26 26.779 223.868C29.5786 242.976 27.9358 260.996 13.3643 285.996L15.0922 287.004C29.8995 261.599 31.6209 243.119 28.7579 223.578C27.3343 213.862 24.7751 203.871 22.1721 192.7C19.5647 181.511 16.8975 169.08 15.2218 154.387L13.2347 154.613ZM13.3643 285.996C0.12536 308.711 -3.78022 335.621 6.67465 359.822C17.1344 384.033 41.8718 405.313 85.47 416.966L85.9865 415.034C42.7847 403.487 18.6579 382.517 8.51064 359.028C-1.64157 335.529 2.10285 309.289 15.0922 287.004L13.3643 285.996Z" fill="#4B465D"/>
</svg>
