<svg width="85" height="417" viewBox="0 0 85 417" fill="none" xmlns="http://www.w3.org/2000/svg">
<path d="M56.5002 154.5C63.7002 94.1 22.5002 37 1.00018 16V397.5C73.8002 376.3 83.6909 324.784 64.0002 295.5C32.8002 249.1 49.3002 214.9 56.5002 154.5Z" fill="#AF93BF"/>
<path d="M1.00018 16H0.000175476V13.6254L1.69891 15.2846L1.00018 16ZM56.5002 154.5L57.4931 154.618L56.5002 154.5ZM64.0002 295.5L63.1703 296.058L63.1703 296.058L64.0002 295.5ZM1.00018 397.5L1.27977 398.46L0.000175476 398.833V397.5H1.00018ZM72.5002 154.5L73.4736 154.729L72.5002 154.5ZM72.5002 286.5L73.3529 285.978L73.3529 285.978L72.5002 286.5ZM1.69891 15.2846C12.5259 25.8598 28.2692 45.4759 40.4091 70.0318C52.5486 94.5869 61.1238 124.162 57.4931 154.618L55.5072 154.382C59.0766 124.438 50.6518 95.2631 38.6162 70.9182C26.5811 46.5741 10.9745 27.1402 0.301436 16.7154L1.69891 15.2846ZM57.4931 154.618C55.6897 169.747 53.3034 183.238 51.2334 195.652C49.1613 208.079 47.4081 219.415 46.8489 230.301C45.7335 252.014 49.366 271.944 64.83 294.942L63.1703 296.058C47.4343 272.656 43.7169 252.286 44.8515 230.199C45.4173 219.185 47.1891 207.746 49.2607 195.323C51.3345 182.887 53.7107 169.453 55.5072 154.382L57.4931 154.618ZM64.83 294.942C74.8712 309.875 77.3512 330.45 68.0876 349.96C58.8216 369.475 37.8728 387.804 1.27977 398.46L0.72058 396.54C36.9275 385.996 57.3241 367.966 66.2809 349.102C75.2399 330.234 72.8199 310.409 63.1703 296.058L64.83 294.942ZM0.000175476 397.5V16H2.00018V397.5H0.000175476ZM1.69906 0.284766C16.3366 14.5877 37.4744 39.4362 53.3583 67.5455C69.2205 95.6166 79.9627 127.15 73.4736 154.729L71.5268 154.271C77.8376 127.45 67.4132 96.4834 51.6171 68.5295C35.8426 40.6138 14.8304 15.9123 0.30129 1.71523L1.69906 0.284766ZM73.4736 154.729C60.6293 209.317 46.419 242.012 73.3529 285.978L71.6475 287.022C44.1814 242.188 58.7711 208.483 71.5268 154.271L73.4736 154.729ZM73.3529 285.978C85.1479 305.231 89.0175 332.137 78.9578 357.173C68.8835 382.245 44.9008 405.301 1.25839 416.966L0.741959 415.034C43.8996 403.499 67.3065 380.805 77.102 356.427C86.9121 332.013 83.1317 305.769 71.6475 287.022L73.3529 285.978Z" fill="#AF93BF"/>
</svg>
