<svg width="135" height="666" viewBox="0 0 135 666" fill="none" xmlns="http://www.w3.org/2000/svg">
<path d="M46.6496 246.6C35.1296 149.96 101.05 58.6 135.45 25V635.4C18.9696 601.48 3.14438 519.054 34.6496 472.2C84.6772 397.8 58.1696 343.24 46.6496 246.6Z" fill="#AF93BF"/>
<path d="M135.45 25H136.45V22.6254L134.751 24.2846L135.45 25ZM46.6496 246.6L47.6426 246.482L46.6496 246.6ZM34.6496 472.2L33.8197 471.642L33.8197 471.642L34.6496 472.2ZM135.45 635.4L135.17 636.36L136.45 636.733V635.4H135.45ZM21.0496 246.6L22.0431 246.487L21.0496 246.6ZM21.0496 457.8L21.9135 458.304L21.9135 458.304L21.0496 457.8ZM134.751 24.2846C117.474 41.1598 92.3255 72.4909 72.9332 111.717C53.5412 150.942 39.866 198.142 45.6566 246.718L47.6426 246.482C41.9132 198.418 55.438 151.618 74.726 112.603C94.0137 73.5891 119.025 42.4402 136.148 25.7154L134.751 24.2846ZM45.6566 246.718C48.5401 270.908 52.3619 292.466 55.6834 312.323C59.0071 332.192 61.8278 350.345 62.7313 367.792C64.535 402.624 58.6977 434.644 33.8197 471.642L35.4794 472.758C60.629 435.356 66.5518 402.896 64.7286 367.688C63.8186 350.115 60.9791 331.858 57.656 311.993C54.3307 292.114 50.5191 270.612 47.6426 246.482L45.6566 246.718ZM33.8197 471.642C17.8714 495.36 13.9213 528.055 28.6518 559.079C43.3846 590.108 76.737 619.344 135.17 636.36L135.729 634.44C77.6822 617.536 44.882 588.599 30.4585 558.221C16.0327 527.839 19.9226 495.894 35.4794 472.758L33.8197 471.642ZM136.45 635.4V25H134.45V635.4H136.45ZM134.956 0.130373C106.528 16.2696 75.1234 54.2687 52.1819 99.9512C29.2308 145.653 14.6437 199.253 20.056 246.713L22.0431 246.487C16.6901 199.547 31.1203 146.347 53.9692 100.849C76.8278 55.3313 108.006 17.7304 135.943 1.86963L134.956 0.130373ZM20.056 246.713C22.7538 270.37 27.0474 290.373 31.2275 308.311C35.4121 326.268 39.4673 342.096 41.7245 357.502C46.2228 388.204 43.5708 417.174 20.1856 457.296L21.9135 458.304C45.5345 417.777 48.2652 388.347 43.7033 357.212C41.4304 341.698 37.3447 325.749 33.1754 307.857C29.0016 289.946 24.728 270.03 22.0431 246.487L20.056 246.713ZM20.1856 457.296C-0.921804 493.511 -7.12238 536.366 9.51461 574.877C26.1565 613.398 65.5532 647.353 135.191 665.966L135.708 664.034C66.466 645.527 27.68 611.882 11.3506 574.083C-4.98374 536.274 1.05568 494.089 21.9135 458.304L20.1856 457.296Z" fill="#AF93BF"/>
</svg>
