<svg width="18" height="18" viewBox="0 0 18 18" fill="none" xmlns="http://www.w3.org/2000/svg">
<path d="M4.92164 8.0325C5.16644 8.0325 5.37164 7.94625 5.53724 7.77375C5.70284 7.60125 5.78564 7.3875 5.78564 7.1325C5.78564 6.8775 5.70284 6.66375 5.53724 6.49125C5.37164 6.31875 5.16644 6.2325 4.92164 6.2325C4.67684 6.2325 4.47164 6.31875 4.30604 6.49125C4.14044 6.66375 4.05764 6.8775 4.05764 7.1325C4.05764 7.3875 4.14044 7.60125 4.30604 7.77375C4.47164 7.94625 4.67684 8.0325 4.92164 8.0325ZM8.74484 8.0325C8.98964 8.0325 9.19484 7.94625 9.36044 7.77375C9.52604 7.60125 9.60884 7.3875 9.60884 7.1325C9.60884 6.8775 9.52604 6.66375 9.36044 6.49125C9.19484 6.31875 8.98964 6.2325 8.74484 6.2325C8.50004 6.2325 8.29484 6.31875 8.12924 6.49125C7.96364 6.66375 7.88084 6.8775 7.88084 7.1325C7.88084 7.3875 7.96364 7.60125 8.12924 7.77375C8.29484 7.94625 8.50004 8.0325 8.74484 8.0325ZM12.4168 8.0325C12.6616 8.0325 12.8668 7.94625 13.0324 7.77375C13.198 7.60125 13.2808 7.3875 13.2808 7.1325C13.2808 6.8775 13.198 6.66375 13.0324 6.49125C12.8668 6.31875 12.6616 6.2325 12.4168 6.2325C12.172 6.2325 11.9668 6.31875 11.8012 6.49125C11.6356 6.66375 11.5528 6.8775 11.5528 7.1325C11.5528 7.3875 11.6356 7.60125 11.8012 7.77375C11.9668 7.94625 12.172 8.0325 12.4168 8.0325ZM0.0400391 18V1.35C0.0400391 1.005 0.169639 0.69375 0.428839 0.41625C0.688039 0.13875 0.990439 0 1.33604 0H16.024C16.3552 0 16.654 0.13875 16.9204 0.41625C17.1868 0.69375 17.32 1.005 17.32 1.35V13.05C17.32 13.395 17.1868 13.7063 16.9204 13.9838C16.654 14.2612 16.3552 14.4 16.024 14.4H3.49604L0.0400391 18ZM1.33604 14.7375L2.95604 13.05H16.024V1.35H1.33604V14.7375ZM1.33604 1.35V13.05V14.7375V1.35Z" fill="#36D6AD"/>
</svg>
